G04 ================== begin FILE IDENTIFICATION RECORD ==================*
G04 Layout Name:  D:/OrCAD file/oscilator_semnal_triunghiular/allegro/OSC_NOU.brd*
G04 Film Name:    BOTTOM*
G04 File Format:  Gerber RS274X*
G04 File Origin:  Cadence Allegro 16.6-2015-S059*
G04 Origin Date:  Fri Nov 08 18:06:22 2019*
G04 *
G04 Layer:  ETCH/BOTTOM*
G04 Layer:  PIN/BOTTOM*
G04 Layer:  VIA CLASS/BOTTOM*
G04 *
G04 Offset:    (0.00 0.00)*
G04 Mirror:    No*
G04 Mode:      Positive*
G04 Rotation:  0*
G04 FullContactRelief:  No*
G04 UndefLineWidth:     5.00*
G04 ================== end FILE IDENTIFICATION RECORD ====================*
%FSLAX25Y25*MOIN*%
%IR0*IPPOS*OFA0.00000B0.00000*MIA0B0*SFA1.00000B1.00000*%
%ADD10C,.024*%
%ADD11C,.018*%
G75*
%LPD*%
G75*
G36*
G01X127545Y4725D02*
G02X127263Y5408I1J400D01*
G01X129702Y7847D01*
Y37353D01*
X128986Y38068D01*
X128972Y38114D01*
G03X128442Y39032I-2471J-815D01*
G02X128740Y39698I298J266D01*
G01X141847D01*
X144514Y37032D01*
X144528Y36986D01*
G03X147814Y40272I2472J814D01*
G01X147768Y40286D01*
X143753Y44302D01*
X114353D01*
X97502Y61153D01*
Y63186D01*
G03X92898I-2302J1214D01*
G01Y59242D01*
G02X92559Y58597I-315J-246D01*
G03X91586Y53528I-160J-2597D01*
G01X91632Y53514D01*
X94298Y50847D01*
Y38722D01*
G02X93616Y38439I-400J0D01*
G01X93302Y38753D01*
Y45753D01*
X90553Y48502D01*
X68153D01*
X68102Y48553D01*
Y70186D01*
G03X64501Y73655I-2302J1214D01*
G02X63902Y74001I-199J346D01*
G01Y84447D01*
X65353Y85898D01*
X74386D01*
G03X77855Y89499I1214J2302D01*
G02X78201Y90098I346J199D01*
G01X79986D01*
G03X80262Y89973I1210J2304D01*
G02Y89227I-145J-373D01*
G03X78898Y85586I938J-2427D01*
G01Y58614D01*
G03X83502I2302J-1214D01*
G01Y85586D01*
G03X82138Y89227I-2302J1214D01*
G02Y89973I145J373D01*
G03X79986Y94702I-939J2427D01*
G01X73753D01*
X66753Y101702D01*
X58322D01*
G02X58039Y102384I0J400D01*
G01X62553Y106898D01*
X99097D01*
X99157Y106838D01*
G02X98944Y106162I-283J-282D01*
G03X97098Y102386I456J-2562D01*
G01Y91447D01*
X101298Y87247D01*
Y78214D01*
G03X101098Y76287I2302J-1213D01*
G01X101130Y76174D01*
X100905Y75950D01*
X100302Y76553D01*
Y86353D01*
X94886Y91768D01*
X94872Y91814D01*
G03X91586Y88528I-2472J-814D01*
G01X91632Y88514D01*
X95698Y84447D01*
Y74647D01*
X99847Y70498D01*
X109247D01*
X109698Y70047D01*
Y54414D01*
G03X114302I2302J-1214D01*
G01Y71953D01*
X111153Y75102D01*
X106201D01*
G02X105855Y75701I0J400D01*
G03X105902Y78214I-2255J1299D01*
G01Y89153D01*
X101702Y93353D01*
Y102386D01*
G03X101655Y104899I-2302J1214D01*
G02X102001Y105498I346J199D01*
G01X137247D01*
X137698Y105047D01*
Y89553D01*
X137247Y89102D01*
X132814D01*
G03X129128Y87614I-1214J-2302D01*
G01X129114Y87568D01*
X123698Y82153D01*
Y79614D01*
G03X128323Y79572I2302J-1214D01*
G01X128302Y79615D01*
Y80247D01*
X132368Y84314D01*
X132414Y84328D01*
G03X132772Y84477I-818J2470D01*
G01X132815Y84498D01*
X133447D01*
X136114Y81832D01*
X136128Y81786D01*
G03X140071Y84746I2472J814D01*
G02X140014Y85359I226J330D01*
G01X142302Y87647D01*
Y106953D01*
X139153Y110102D01*
X118522D01*
G02X118239Y110784I0J400D01*
G01X119768Y112314D01*
X119814Y112328D01*
G03X116528Y115614I-814J2472D01*
G01X116514Y115568D01*
X115247Y114302D01*
X103414D01*
G03X99599Y111915I-1214J-2302D01*
G02X99200Y111502I-399J-13D01*
G01X83801D01*
G02X83455Y112101I0J400D01*
G03X83502Y114614I-2255J1299D01*
G01Y116647D01*
X86353Y119498D01*
X129247D01*
X134714Y114032D01*
X134728Y113986D01*
G03X138014Y117272I2472J814D01*
G01X137968Y117286D01*
X131153Y124102D01*
X84447D01*
X78898Y118553D01*
Y115702D01*
X55522D01*
G02X55239Y116384I0J400D01*
G01X58168Y119314D01*
X58214Y119328D01*
G03X54928Y122614I-814J2472D01*
G01X54914Y122568D01*
X48047Y115702D01*
X29214D01*
G03X25745Y112101I-1214J-2302D01*
G02X25399Y111502I-346J-199D01*
G01X17647D01*
X14498Y108353D01*
Y96401D01*
G02X13899Y96055I-400J0D01*
G03X10128Y94614I-1299J-2255D01*
G01X10114Y94568D01*
X9284Y93739D01*
G02X8602Y94022I-282J283D01*
G01Y146347D01*
X9753Y147498D01*
X50847D01*
X52298Y146047D01*
Y145415D01*
X52277Y145372D01*
G03X56902Y145414I2323J-1172D01*
G01Y147953D01*
X52753Y152102D01*
X7847D01*
X5408Y149663D01*
G02X4725Y149945I-283J283D01*
G01Y152755D01*
X60025D01*
G02X60235Y152015I0J-400D01*
G03X61600Y147198I1365J-2215D01*
G01X64322D01*
X64598Y146922D01*
Y143878D01*
X60522Y139802D01*
X52878D01*
X47278Y145402D01*
X35000D01*
G03Y140198I0J-2602D01*
G01X45122D01*
X50722Y134598D01*
X62678D01*
X69802Y141722D01*
Y149078D01*
X66807Y152072D01*
G02X67090Y152755I283J283D01*
G01X152755D01*
Y81376D01*
G02X152015Y81166I-400J0D01*
G03X150702Y82241I-2215J-1366D01*
G01Y147953D01*
X146553Y152102D01*
X82047D01*
X78898Y148953D01*
Y127214D01*
G03X83502I2302J-1214D01*
G01Y147047D01*
X83953Y147498D01*
X144647D01*
X146098Y146047D01*
Y80247D01*
X147314Y79032D01*
X147328Y78986D01*
G03X152015Y78434I2472J814D01*
G02X152755Y78224I340J-210D01*
G01Y4725D01*
X127545D01*
G37*
%LPC*%
G75*
G36*
G01X122702Y55553D02*
X128168Y50086D01*
X128214Y50072D01*
G02X124928Y46786I-814J-2472D01*
G01X124914Y46832D01*
X118098Y53647D01*
Y74386D01*
G02Y76814I2302J1214D01*
G01Y85586D01*
G02X122702I2302J1214D01*
G01Y76814D01*
G02Y74386I-2302J-1214D01*
G01Y55553D01*
G37*
%LPD*%
G75*
G54D10*
G01X61600Y149800D02*
X65400D01*
X67200Y148000D01*
Y142800D01*
X61600Y137200D01*
X51800D01*
X46200Y142800D01*
X35000D01*
G01X74200Y53200D02*
Y70000D01*
G01X124600Y67200D02*
Y58800D01*
X127400Y56000D01*
X134400D01*
X9800Y28000D03*
X14000Y54600D03*
X29400Y51800D03*
X21000Y77000D03*
X33600Y103600D03*
X28000Y113400D03*
X12600Y93800D03*
X35000Y142800D03*
X56000Y12600D03*
X65800Y11200D03*
X53200Y81200D03*
X47600Y88200D03*
X65800Y71400D03*
X57400Y121800D03*
X63000Y93800D03*
X54600Y95200D03*
X61600Y149800D03*
X54600Y144200D03*
X75600Y30800D03*
X86800D03*
X98000D03*
X74200Y53200D03*
X92400Y56000D03*
X81200Y57400D03*
X95200Y64400D03*
X74200Y70000D03*
X92400Y91000D03*
X81200Y86800D03*
X75600Y88200D03*
X81200Y113400D03*
Y92400D03*
X99400Y103600D03*
X81200Y126000D03*
X109200Y30800D03*
X127400Y47600D03*
X112000Y53200D03*
X105500Y37300D03*
X126500D03*
X120400Y75600D03*
Y86800D03*
X131600D03*
X126000Y78400D03*
X124600Y67200D03*
X103600Y77000D03*
X119000Y114800D03*
X102200Y112000D03*
X147000Y37800D03*
X135800Y57400D03*
X138600Y82600D03*
X149800Y79800D03*
X137200Y114800D03*
G54D11*
G01X12600Y93800D02*
X9800Y91000D01*
Y28000D01*
G01X56000Y12600D02*
X12927D01*
X9800Y15727D01*
Y28000D01*
G01X54600Y144200D02*
Y147000D01*
X51800Y149800D01*
X8800D01*
X6300Y147300D01*
Y13700D01*
X13000Y7000D01*
X125600D01*
X127400Y8800D01*
Y36400D01*
X126500Y37300D01*
G01X54600Y95200D02*
X36800D01*
X35000Y93400D01*
Y21400D01*
X36800Y19600D01*
X57400D01*
X65800Y11200D01*
G01X14000Y54600D02*
Y88200D01*
X16800Y91000D01*
Y107400D01*
X18600Y109200D01*
X50400D01*
X54600Y113400D01*
X81200D01*
G01X29400Y51800D02*
Y68600D01*
X21000Y77000D01*
G01D02*
Y97600D01*
X22800Y99400D01*
X65800D01*
X72800Y92400D01*
X81200D01*
G01X134400Y86800D02*
X138200D01*
X140000Y88600D01*
Y106000D01*
X138200Y107800D01*
X101450D01*
X100050Y109200D01*
X61600D01*
X56000Y103600D01*
X33600D01*
G01X28000Y113400D02*
X49000D01*
X57400Y121800D01*
G01X75600Y30800D02*
Y33600D01*
X74200Y35000D01*
X60200D01*
X57400Y37800D01*
Y88200D01*
X63000Y93800D01*
G01X86800Y30800D02*
Y38800D01*
X85000Y40600D01*
X63400D01*
X61600Y42400D01*
Y85400D01*
X64400Y88200D01*
X75600D01*
G01X98000Y30800D02*
X91000Y37800D01*
Y44800D01*
X89600Y46200D01*
X67200D01*
X65800Y47600D01*
Y71400D01*
G01X53200Y81200D02*
X51800Y82600D01*
Y84000D01*
X47600Y88200D01*
G01X147000Y37800D02*
X142800Y42000D01*
X113400D01*
X95200Y60200D01*
Y64400D01*
G01X109200Y30800D02*
X107361Y32639D01*
X103161D01*
X96600Y39200D01*
Y51800D01*
X92400Y56000D01*
G01X81200Y86800D02*
Y57400D01*
G01X92400Y91000D02*
X98000Y85400D01*
Y75600D01*
X100800Y72800D01*
X110200D01*
X112000Y71000D01*
Y53200D01*
G01X137200Y114800D02*
X130200Y121800D01*
X85400D01*
X81200Y117600D01*
Y113400D01*
G01X103600Y77000D02*
Y88200D01*
X99400Y92400D01*
Y103600D01*
G01X149800Y79800D02*
X148400Y81200D01*
Y147000D01*
X145600Y149800D01*
X83000D01*
X81200Y148000D01*
Y126000D01*
G01X120400Y75600D02*
Y54600D01*
X127400Y47600D01*
G01X134400Y56000D02*
X135800Y57400D01*
G01X126500Y37300D02*
X105500D01*
G01X120400Y86800D02*
Y75600D01*
G01X126000Y78400D02*
Y81200D01*
X131600Y86800D01*
G01X102200Y112000D02*
X116200D01*
X119000Y114800D01*
G01X134400Y86800D02*
X138600Y82600D01*
G01X131600Y86800D02*
X134400D01*
M02*
