G04 ================== begin FILE IDENTIFICATION RECORD ==================*
G04 Layout Name:  D:/OrCAD file/oscilator_semnal_triunghiular/allegro/OSC_NOU.brd*
G04 Film Name:    SPTOP*
G04 File Format:  Gerber RS274X*
G04 File Origin:  Cadence Allegro 16.6-2015-S059*
G04 Origin Date:  Fri Nov 08 18:06:22 2019*
G04 *
G04 Layer:  VIA CLASS/PASTEMASK_TOP*
G04 Layer:  PIN/PASTEMASK_TOP*
G04 Layer:  DRC ERROR CLASS/PASTEMASK_TOP*
G04 *
G04 Offset:    (0.00 0.00)*
G04 Mirror:    No*
G04 Mode:      Positive*
G04 Rotation:  0*
G04 FullContactRelief:  No*
G04 UndefLineWidth:     5.00*
G04 ================== end FILE IDENTIFICATION RECORD ====================*
%FSLAX25Y25*MOIN*%
%IR0*IPPOS*OFA0.00000B0.00000*MIA0B0*SFA1.00000B1.00000*%
%ADD10C,.05*%
%ADD14R,.05X.05*%
%ADD12R,.045X.045*%
%ADD13R,.025X.045*%
%ADD11R,.07X.045*%
%ADD15R,.045X.025*%
%ADD16R,.066X.035*%
%ADD17R,.076X.048*%
%LPD*%
G75*
G54D10*
X19600Y19600D03*
X137200Y137200D03*
G54D11*
X40928Y14156D03*
X19928Y64556D03*
X22072Y142644D03*
G54D12*
X36400Y36400D03*
X24455Y86800D03*
X15400D03*
X17545Y120400D03*
X26600D03*
X45455Y36400D03*
G54D13*
X15400Y37300D03*
X23100D03*
X19200Y45300D03*
X41300Y122300D03*
X39200Y96100D03*
X43000Y104100D03*
X40600Y135300D03*
X49000Y122300D03*
X45200Y114300D03*
X54600Y104500D03*
X62300D03*
X58400Y112500D03*
X71400Y100300D03*
X72800Y123700D03*
X65100D03*
X69000Y115700D03*
X46900Y96100D03*
X48300Y135300D03*
X44400Y143300D03*
X99400Y45300D03*
X91700D03*
X95600Y37300D03*
X79100Y100300D03*
X75200Y108300D03*
X96600Y122300D03*
X88900D03*
X92800Y114300D03*
X89600Y97500D03*
X97300D03*
X93400Y105500D03*
X112000Y37300D03*
X119700D03*
X115800Y45300D03*
X133000Y37300D03*
X111000Y91900D03*
X131600Y123700D03*
X123900D03*
X127800Y115700D03*
X126700Y102700D03*
X130600Y94700D03*
X114800Y122300D03*
X107100D03*
X111000Y114300D03*
X114800Y99900D03*
X107100D03*
X140700Y37300D03*
X136800Y45300D03*
X134400Y102700D03*
G54D14*
X37800Y53200D03*
Y61600D03*
X15400Y102200D03*
Y110600D03*
X26600Y95200D03*
Y103600D03*
X50400Y53200D03*
Y61600D03*
X63000D03*
Y53200D03*
X71400Y79800D03*
X63000D03*
X72800Y142800D03*
Y134400D03*
X61600Y142800D03*
Y134400D03*
X75600Y21000D03*
Y12600D03*
X86800Y21000D03*
Y12600D03*
X98000Y21000D03*
Y12600D03*
X95200Y71400D03*
Y79800D03*
X82600D03*
Y71400D03*
X84000Y142800D03*
Y134400D03*
X95200Y142800D03*
Y134400D03*
X109200Y21000D03*
Y12600D03*
X120400Y21000D03*
Y12600D03*
X131600Y21000D03*
Y12600D03*
X113400Y75600D03*
Y67200D03*
X131600D03*
Y75600D03*
X120400Y142800D03*
Y134400D03*
X107800Y142800D03*
Y134400D03*
G54D15*
X38700Y84000D03*
Y76300D03*
X64900Y18200D03*
Y25900D03*
X56900Y22000D03*
X46700Y80200D03*
G54D16*
X147000Y63000D03*
G54D17*
Y70900D03*
M02*
