G04 ================== begin FILE IDENTIFICATION RECORD ==================*
G04 Layout Name:  D:/OrCAD file/oscilator_semnal_triunghiular/allegro/OSC_NOU.brd*
G04 Film Name:    SSTOP*
G04 File Format:  Gerber RS274X*
G04 File Origin:  Cadence Allegro 16.6-2015-S059*
G04 Origin Date:  Fri Nov 08 18:06:22 2019*
G04 *
G04 Layer:  USER PART NUMBER/SILKSCREEN_TOP*
G04 Layer:  TOLERANCE/SILKSCREEN_TOP*
G04 Layer:  REF DES/SILKSCREEN_TOP*
G04 Layer:  PACKAGE GEOMETRY/SILKSCREEN_TOP*
G04 Layer:  DEVICE TYPE/SILKSCREEN_TOP*
G04 Layer:  COMPONENT VALUE/SILKSCREEN_TOP*
G04 Layer:  BOARD GEOMETRY/SILKSCREEN_TOP*
G04 *
G04 Offset:    (0.00 0.00)*
G04 Mirror:    No*
G04 Mode:      Positive*
G04 Rotation:  0*
G04 FullContactRelief:  No*
G04 UndefLineWidth:     5.00*
G04 ================== end FILE IDENTIFICATION RECORD ====================*
%FSLAX25Y25*MOIN*%
%IR0*IPPOS*OFA0.00000B0.00000*MIA0B0*SFA1.00000B1.00000*%
%ADD10C,.005*%
%ADD11C,.006*%
%ADD12C,.00787*%
G75*
%LPD*%
G75*
G54D10*
G01X8000Y7600D02*
Y5600D01*
G01X7233Y7600D02*
X8767D01*
G01X10133Y5600D02*
Y6933D01*
G01Y6667D02*
X10300Y6800D01*
X10467Y6900D01*
X10700Y6933D01*
X10867Y6900D01*
X11067Y6800D01*
G01X13200Y5600D02*
X13000Y5633D01*
X12800Y5767D01*
X12667Y6000D01*
X12600Y6267D01*
X12667Y6533D01*
X12800Y6767D01*
X13000Y6900D01*
X13200Y6933D01*
X13400Y6900D01*
X13600Y6767D01*
X13733Y6533D01*
X13767Y6267D01*
X13733Y6000D01*
X13600Y5767D01*
X13400Y5633D01*
X13200Y5600D01*
G01X14800D02*
Y6933D01*
G01Y6567D02*
X14900Y6733D01*
X15067Y6867D01*
X15300Y6933D01*
X15533Y6867D01*
X15700Y6733D01*
X15800Y6567D01*
Y5600D01*
G01Y6567D02*
X15900Y6733D01*
X16067Y6867D01*
X16300Y6933D01*
X16533Y6867D01*
X16700Y6733D01*
X16800Y6533D01*
Y5600D01*
G01X17800D02*
Y7600D01*
G01Y6600D02*
X17967Y6800D01*
X18167Y6900D01*
X18367Y6933D01*
X18667Y6867D01*
X18867Y6733D01*
X19000Y6500D01*
Y6233D01*
X18933Y5967D01*
X18800Y5767D01*
X18567Y5633D01*
X18367Y5600D01*
X18167Y5633D01*
X17967Y5733D01*
X17800Y5900D01*
G01X21000Y6933D02*
Y5600D01*
G01Y7467D02*
X20933Y7500D01*
Y7567D01*
X21000Y7600D01*
X21067Y7567D01*
Y7500D01*
X21000Y7467D01*
G01X23600Y7600D02*
Y5600D01*
G01X23133Y6933D02*
X24067D01*
G01X26800Y5600D02*
Y6933D01*
G01Y6700D02*
X26667Y6833D01*
X26467Y6900D01*
X26233Y6933D01*
X26000Y6867D01*
X25800Y6733D01*
X25667Y6533D01*
X25600Y6267D01*
X25667Y6000D01*
X25800Y5800D01*
X26000Y5667D01*
X26233Y5600D01*
X26467Y5633D01*
X26667Y5733D01*
X26800Y5867D01*
G01X28300Y5833D02*
X28467Y5700D01*
X28700Y5600D01*
X28900D01*
X29100Y5667D01*
X29233Y5767D01*
X29300Y5900D01*
X29267Y6100D01*
X29133Y6200D01*
X28533Y6400D01*
X28400Y6633D01*
X28467Y6800D01*
X28600Y6900D01*
X28800Y6933D01*
X29000Y6900D01*
X29200Y6800D01*
G01X33333Y5600D02*
Y7600D01*
X34167D01*
X34433Y7500D01*
X34600Y7367D01*
X34667Y7100D01*
X34600Y6833D01*
X34400Y6667D01*
X34167Y6567D01*
X33333D01*
G01X34167D02*
X34667Y5600D01*
G01X37200D02*
Y6933D01*
G01Y6700D02*
X37067Y6833D01*
X36867Y6900D01*
X36633Y6933D01*
X36400Y6867D01*
X36200Y6733D01*
X36067Y6533D01*
X36000Y6267D01*
X36067Y6000D01*
X36200Y5800D01*
X36400Y5667D01*
X36633Y5600D01*
X36867Y5633D01*
X37067Y5733D01*
X37200Y5867D01*
G01X38700Y6933D02*
X39700D01*
X38700Y5600D01*
X39700D01*
G01X41200Y6933D02*
X41800Y5600D01*
X42400Y6933D01*
G01X45000Y5600D02*
Y6933D01*
G01Y6700D02*
X44867Y6833D01*
X44667Y6900D01*
X44433Y6933D01*
X44200Y6867D01*
X44000Y6733D01*
X43867Y6533D01*
X43800Y6267D01*
X43867Y6000D01*
X44000Y5800D01*
X44200Y5667D01*
X44433Y5600D01*
X44667Y5633D01*
X44867Y5733D01*
X45000Y5867D01*
G01X46433Y5600D02*
Y6933D01*
G01Y6600D02*
X46567Y6767D01*
X46767Y6900D01*
X47033Y6933D01*
X47267Y6900D01*
X47467Y6767D01*
X47567Y6533D01*
Y5600D01*
G01X52600D02*
Y7600D01*
X51367Y6167D01*
X53033D01*
G01X54067Y6000D02*
X54267Y5767D01*
X54533Y5633D01*
X54833Y5600D01*
X55100Y5633D01*
X55367Y5800D01*
X55533Y6000D01*
X55567Y6200D01*
X55500Y6433D01*
X55267Y6600D01*
X55033Y6667D01*
X54733D01*
G01X55033D02*
X55233Y6767D01*
X55400Y6933D01*
X55467Y7133D01*
X55400Y7333D01*
X55233Y7500D01*
X54933Y7600D01*
X54633Y7567D01*
X54333Y7433D01*
G01X56667Y5900D02*
X56867Y5733D01*
X57100Y5633D01*
X57400Y5600D01*
X57700Y5667D01*
X57933Y5800D01*
X58100Y6033D01*
X58133Y6300D01*
X58067Y6567D01*
X57900Y6733D01*
X57667Y6867D01*
X57433Y6900D01*
X57200Y6867D01*
X56900Y6733D01*
X57000Y7600D01*
X57900D01*
G01X60667Y5600D02*
X59333D01*
Y7600D01*
X60667D01*
G01X60133Y6633D02*
X59333D01*
G01X64533Y5600D02*
Y7600D01*
X65333D01*
X65600Y7500D01*
X65800Y7267D01*
X65867Y7000D01*
X65800Y6733D01*
X65633Y6533D01*
X65333Y6433D01*
X64533D01*
G01X67133Y5600D02*
Y7600D01*
X67967D01*
X68233Y7500D01*
X68400Y7367D01*
X68467Y7100D01*
X68400Y6833D01*
X68200Y6667D01*
X67967Y6567D01*
X67133D01*
G01X67967D02*
X68467Y5600D01*
G01X70400D02*
X70133Y5633D01*
X69900Y5767D01*
X69700Y5967D01*
X69567Y6200D01*
X69500Y6467D01*
Y6733D01*
X69567Y7000D01*
X69700Y7233D01*
X69900Y7433D01*
X70133Y7567D01*
X70400Y7600D01*
X70667Y7567D01*
X70900Y7433D01*
X71100Y7233D01*
X71233Y7000D01*
X71300Y6733D01*
Y6467D01*
X71233Y6200D01*
X71100Y5967D01*
X70900Y5767D01*
X70667Y5633D01*
X70400Y5600D01*
G01X72600Y7600D02*
X73400D01*
G01X73000D02*
Y5600D01*
G01X72600D02*
X73400D01*
G01X76267D02*
X74933D01*
Y7600D01*
X76267D01*
G01X75733Y6633D02*
X74933D01*
G01X78933Y7433D02*
X78733Y7533D01*
X78500Y7600D01*
X78233D01*
X77933Y7500D01*
X77700Y7333D01*
X77533Y7133D01*
X77400Y6800D01*
X77367Y6500D01*
X77433Y6200D01*
X77533Y6000D01*
X77733Y5800D01*
X77967Y5667D01*
X78200Y5600D01*
X78433D01*
X78667Y5667D01*
X78867Y5767D01*
X79033Y5900D01*
G01X80800Y7600D02*
Y5600D01*
G01X80033Y7600D02*
X81567D01*
G01X86000Y5600D02*
Y7600D01*
X85600Y7200D01*
G01Y5600D02*
X86400D01*
G01X90467D02*
Y7600D01*
X91133D01*
X91400Y7500D01*
X91600Y7367D01*
X91767Y7167D01*
X91900Y6933D01*
X91933Y6600D01*
X91900Y6267D01*
X91767Y6033D01*
X91600Y5833D01*
X91400Y5700D01*
X91133Y5600D01*
X90467D01*
G01X94533Y7433D02*
X94333Y7533D01*
X94100Y7600D01*
X93833D01*
X93533Y7500D01*
X93300Y7333D01*
X93133Y7133D01*
X93000Y6800D01*
X92967Y6500D01*
X93033Y6200D01*
X93133Y6000D01*
X93333Y5800D01*
X93567Y5667D01*
X93800Y5600D01*
X94033D01*
X94267Y5667D01*
X94467Y5767D01*
X94633Y5900D01*
G01X97067Y5600D02*
X95733D01*
Y7600D01*
X97067D01*
G01X96533Y6633D02*
X95733D01*
G01X10133Y58800D02*
Y60800D01*
X10967D01*
X11233Y60700D01*
X11400Y60567D01*
X11467Y60300D01*
X11400Y60033D01*
X11200Y59867D01*
X10967Y59767D01*
X10133D01*
G01X10967D02*
X11467Y58800D01*
G01X12567Y60800D02*
X13400Y58800D01*
X14233Y60800D01*
G01X15000Y58133D02*
X17000D01*
G01X17867Y59100D02*
X18067Y58933D01*
X18300Y58833D01*
X18600Y58800D01*
X18900Y58867D01*
X19133Y59000D01*
X19300Y59233D01*
X19333Y59500D01*
X19267Y59767D01*
X19100Y59933D01*
X18867Y60067D01*
X18633Y60100D01*
X18400Y60067D01*
X18100Y59933D01*
X18200Y60800D01*
X19100D01*
G01X21200D02*
X20933Y60733D01*
X20733Y60567D01*
X20600Y60367D01*
X20500Y60100D01*
X20467Y59800D01*
X20500Y59500D01*
X20600Y59233D01*
X20733Y59033D01*
X20933Y58867D01*
X21200Y58800D01*
X21467Y58867D01*
X21667Y59033D01*
X21800Y59233D01*
X21900Y59500D01*
X21933Y59800D01*
X21900Y60100D01*
X21800Y60367D01*
X21667Y60567D01*
X21467Y60733D01*
X21200Y60800D01*
G01X23800D02*
X23533Y60733D01*
X23333Y60567D01*
X23200Y60367D01*
X23100Y60100D01*
X23067Y59800D01*
X23100Y59500D01*
X23200Y59233D01*
X23333Y59033D01*
X23533Y58867D01*
X23800Y58800D01*
X24067Y58867D01*
X24267Y59033D01*
X24400Y59233D01*
X24500Y59500D01*
X24533Y59800D01*
X24500Y60100D01*
X24400Y60367D01*
X24267Y60567D01*
X24067Y60733D01*
X23800Y60800D01*
G01X25667Y58800D02*
Y60800D01*
G01X26933D02*
X25667Y59567D01*
G01X27133Y58800D02*
X26233Y60133D01*
G01X10800Y46200D02*
X10533Y46233D01*
X10300Y46367D01*
X10100Y46567D01*
X9967Y46800D01*
X9900Y47067D01*
Y47333D01*
X9967Y47600D01*
X10100Y47833D01*
X10300Y48033D01*
X10533Y48167D01*
X10800Y48200D01*
X11067Y48167D01*
X11300Y48033D01*
X11500Y47833D01*
X11633Y47600D01*
X11700Y47333D01*
Y47067D01*
X11633Y46800D01*
X11500Y46567D01*
X11300Y46367D01*
X11067Y46233D01*
X10800Y46200D01*
G01X11067Y46733D02*
X11467Y46200D01*
G01X14500D02*
Y48200D01*
X13267Y46767D01*
X14933D01*
G01X9800Y109533D02*
X7800D01*
Y110367D01*
X7900Y110633D01*
X8033Y110800D01*
X8300Y110867D01*
X8567Y110800D01*
X8733Y110600D01*
X8833Y110367D01*
Y109533D01*
G01Y110367D02*
X9800Y110867D01*
G01Y114100D02*
X7800D01*
X8200Y113700D01*
G01X9800D02*
Y114500D01*
G01X13200Y44100D02*
X25200D01*
Y38500D01*
X13200D01*
Y44100D01*
G01X36733Y48033D02*
X36533Y48133D01*
X36300Y48200D01*
X36033D01*
X35733Y48100D01*
X35500Y47933D01*
X35333Y47733D01*
X35200Y47400D01*
X35167Y47100D01*
X35233Y46800D01*
X35333Y46600D01*
X35533Y46400D01*
X35767Y46267D01*
X36000Y46200D01*
X36233D01*
X36467Y46267D01*
X36667Y46367D01*
X36833Y46500D01*
G01X39900Y46200D02*
Y48200D01*
X39500Y47800D01*
G01Y46200D02*
X40300D01*
G01X40200Y86800D02*
X39933Y86833D01*
X39700Y86967D01*
X39500Y87167D01*
X39367Y87400D01*
X39300Y87667D01*
Y87933D01*
X39367Y88200D01*
X39500Y88433D01*
X39700Y88633D01*
X39933Y88767D01*
X40200Y88800D01*
X40467Y88767D01*
X40700Y88633D01*
X40900Y88433D01*
X41033Y88200D01*
X41100Y87933D01*
Y87667D01*
X41033Y87400D01*
X40900Y87167D01*
X40700Y86967D01*
X40467Y86833D01*
X40200Y86800D01*
G01X40467Y87333D02*
X40867Y86800D01*
G01X43500D02*
X43733Y86833D01*
X44000Y86933D01*
X44167Y87100D01*
X44233Y87333D01*
X44167Y87567D01*
X43967Y87767D01*
X43667Y87867D01*
X43333D01*
X43133Y87933D01*
X42967Y88100D01*
X42900Y88333D01*
X43000Y88567D01*
X43233Y88733D01*
X43500Y88800D01*
X43767Y88733D01*
X44000Y88567D01*
X44100Y88333D01*
X44033Y88100D01*
X43867Y87933D01*
X43667Y87867D01*
X43333D01*
X43033Y87767D01*
X42833Y87567D01*
X42767Y87333D01*
X42833Y87100D01*
X43000Y86933D01*
X43267Y86833D01*
X43500Y86800D01*
G01X45500Y86200D02*
Y74200D01*
X39900D01*
Y86200D01*
X45500D01*
G01X31133Y107800D02*
Y109800D01*
X31967D01*
X32233Y109700D01*
X32400Y109567D01*
X32467Y109300D01*
X32400Y109033D01*
X32200Y108867D01*
X31967Y108767D01*
X31133D01*
G01X31967D02*
X32467Y107800D01*
G01X35067Y109467D02*
X35267Y109667D01*
X35500Y109767D01*
X35767Y109800D01*
X36100Y109733D01*
X36333Y109567D01*
X36400Y109367D01*
X36367Y109167D01*
X36233Y109000D01*
X35567Y108667D01*
X35267Y108433D01*
X35067Y108100D01*
X35000Y107800D01*
X36400D01*
G01X51200Y115500D02*
X39200D01*
Y121100D01*
X51200D01*
Y115500D01*
G01X37000Y102900D02*
X49000D01*
Y97300D01*
X37000D01*
Y102900D01*
G01X11667Y150000D02*
X10333D01*
Y152000D01*
X11667D01*
G01X11133Y151033D02*
X10333D01*
G01X13600Y152000D02*
Y150000D01*
G01X12833Y152000D02*
X14367D01*
G01X16200D02*
Y150000D01*
G01X15433Y152000D02*
X16967D01*
G01X18400D02*
X19200D01*
G01X18800D02*
Y150000D01*
G01X18400D02*
X19200D01*
G01X23267Y152000D02*
Y150567D01*
X23400Y150267D01*
X23667Y150067D01*
X24000Y150000D01*
X24333Y150067D01*
X24600Y150267D01*
X24733Y150567D01*
Y152000D01*
G01X25933Y150000D02*
Y152000D01*
X26733D01*
X27000Y151900D01*
X27200Y151667D01*
X27267Y151400D01*
X27200Y151133D01*
X27033Y150933D01*
X26733Y150833D01*
X25933D01*
G01X29467Y151067D02*
X29600Y151167D01*
X29700Y151333D01*
X29767Y151567D01*
X29700Y151767D01*
X29567Y151900D01*
X29333Y152000D01*
X28433D01*
Y150000D01*
X29533D01*
X29767Y150133D01*
X29900Y150333D01*
X29967Y150567D01*
X29900Y150800D01*
X29700Y151000D01*
X29467Y151067D01*
X28433D01*
G01X33767Y151667D02*
X33967Y151867D01*
X34200Y151967D01*
X34467Y152000D01*
X34800Y151933D01*
X35033Y151767D01*
X35100Y151567D01*
X35067Y151367D01*
X34933Y151200D01*
X34267Y150867D01*
X33967Y150633D01*
X33767Y150300D01*
X33700Y150000D01*
X35100D01*
G01X37000Y152000D02*
X36733Y151933D01*
X36533Y151767D01*
X36400Y151567D01*
X36300Y151300D01*
X36267Y151000D01*
X36300Y150700D01*
X36400Y150433D01*
X36533Y150233D01*
X36733Y150067D01*
X37000Y150000D01*
X37267Y150067D01*
X37467Y150233D01*
X37600Y150433D01*
X37700Y150700D01*
X37733Y151000D01*
X37700Y151300D01*
X37600Y151567D01*
X37467Y151767D01*
X37267Y151933D01*
X37000Y152000D01*
G01X39600Y150000D02*
Y152000D01*
X39200Y151600D01*
G01Y150000D02*
X40000D01*
G01X41633Y150233D02*
X41867Y150067D01*
X42133Y150000D01*
X42400Y150067D01*
X42633Y150267D01*
X42800Y150567D01*
X42867Y150867D01*
Y151233D01*
X42800Y151533D01*
X42633Y151800D01*
X42433Y151933D01*
X42200Y152000D01*
X41933Y151933D01*
X41733Y151800D01*
X41600Y151600D01*
X41533Y151333D01*
X41600Y151100D01*
X41767Y150867D01*
X41967Y150733D01*
X42200Y150700D01*
X42467Y150767D01*
X42667Y150933D01*
X42867Y151233D01*
G01X44367Y150667D02*
X45233D01*
G01X46767Y151667D02*
X46967Y151867D01*
X47200Y151967D01*
X47467Y152000D01*
X47800Y151933D01*
X48033Y151767D01*
X48100Y151567D01*
X48067Y151367D01*
X47933Y151200D01*
X47267Y150867D01*
X46967Y150633D01*
X46767Y150300D01*
X46700Y150000D01*
X48100D01*
G01X50000Y152000D02*
X49733Y151933D01*
X49533Y151767D01*
X49400Y151567D01*
X49300Y151300D01*
X49267Y151000D01*
X49300Y150700D01*
X49400Y150433D01*
X49533Y150233D01*
X49733Y150067D01*
X50000Y150000D01*
X50267Y150067D01*
X50467Y150233D01*
X50600Y150433D01*
X50700Y150700D01*
X50733Y151000D01*
X50700Y151300D01*
X50600Y151567D01*
X50467Y151767D01*
X50267Y151933D01*
X50000Y152000D01*
G01X51967Y151667D02*
X52167Y151867D01*
X52400Y151967D01*
X52667Y152000D01*
X53000Y151933D01*
X53233Y151767D01*
X53300Y151567D01*
X53267Y151367D01*
X53133Y151200D01*
X52467Y150867D01*
X52167Y150633D01*
X51967Y150300D01*
X51900Y150000D01*
X53300D01*
G01X55200Y152000D02*
X54933Y151933D01*
X54733Y151767D01*
X54600Y151567D01*
X54500Y151300D01*
X54467Y151000D01*
X54500Y150700D01*
X54600Y150433D01*
X54733Y150233D01*
X54933Y150067D01*
X55200Y150000D01*
X55467Y150067D01*
X55667Y150233D01*
X55800Y150433D01*
X55900Y150700D01*
X55933Y151000D01*
X55900Y151300D01*
X55800Y151567D01*
X55667Y151767D01*
X55467Y151933D01*
X55200Y152000D01*
G01X33600Y138267D02*
X35600D01*
Y137433D01*
X35500Y137167D01*
X35367Y137000D01*
X35100Y136933D01*
X34833Y137000D01*
X34667Y137200D01*
X34567Y137433D01*
Y138267D01*
G01Y137433D02*
X33600Y136933D01*
G01X35600Y135833D02*
X33600Y135000D01*
X35600Y134167D01*
G01X33600Y132400D02*
X35600D01*
X35200Y132800D01*
G01X33600D02*
Y132000D01*
G01X34267Y130233D02*
Y129367D01*
G01X33900Y127933D02*
X33733Y127733D01*
X33633Y127500D01*
X33600Y127200D01*
X33667Y126900D01*
X33800Y126667D01*
X34033Y126500D01*
X34300Y126467D01*
X34567Y126533D01*
X34733Y126700D01*
X34867Y126933D01*
X34900Y127167D01*
X34867Y127400D01*
X34733Y127700D01*
X35600Y127600D01*
Y126700D01*
G01X33600Y125333D02*
X35600D01*
G01Y124067D02*
X34367Y125333D01*
G01X33600Y123867D02*
X34933Y124767D01*
G01X38400Y142100D02*
X50400D01*
Y136500D01*
X38400D01*
Y142100D01*
G01X40200Y126000D02*
X39933Y126033D01*
X39700Y126167D01*
X39500Y126367D01*
X39367Y126600D01*
X39300Y126867D01*
Y127133D01*
X39367Y127400D01*
X39500Y127633D01*
X39700Y127833D01*
X39933Y127967D01*
X40200Y128000D01*
X40467Y127967D01*
X40700Y127833D01*
X40900Y127633D01*
X41033Y127400D01*
X41100Y127133D01*
Y126867D01*
X41033Y126600D01*
X40900Y126367D01*
X40700Y126167D01*
X40467Y126033D01*
X40200Y126000D01*
G01X40467Y126533D02*
X40867Y126000D01*
G01X42767Y126400D02*
X42967Y126167D01*
X43233Y126033D01*
X43533Y126000D01*
X43800Y126033D01*
X44067Y126200D01*
X44233Y126400D01*
X44267Y126600D01*
X44200Y126833D01*
X43967Y127000D01*
X43733Y127067D01*
X43433D01*
G01X43733D02*
X43933Y127167D01*
X44100Y127333D01*
X44167Y127533D01*
X44100Y127733D01*
X43933Y127900D01*
X43633Y128000D01*
X43333Y127967D01*
X43033Y127833D01*
G01X53200Y40267D02*
X55200D01*
Y39433D01*
X55100Y39167D01*
X54967Y39000D01*
X54700Y38933D01*
X54433Y39000D01*
X54267Y39200D01*
X54167Y39433D01*
Y40267D01*
G01Y39433D02*
X53200Y38933D01*
G01X55200Y37833D02*
X53200Y37000D01*
X55200Y36167D01*
G01X54867Y35033D02*
X55067Y34833D01*
X55167Y34600D01*
X55200Y34333D01*
X55133Y34000D01*
X54967Y33767D01*
X54767Y33700D01*
X54567Y33733D01*
X54400Y33867D01*
X54067Y34533D01*
X53833Y34833D01*
X53500Y35033D01*
X53200Y35100D01*
Y33700D01*
G01X53867Y32233D02*
Y31367D01*
G01X53500Y29933D02*
X53333Y29733D01*
X53233Y29500D01*
X53200Y29200D01*
X53267Y28900D01*
X53400Y28667D01*
X53633Y28500D01*
X53900Y28467D01*
X54167Y28533D01*
X54333Y28700D01*
X54467Y28933D01*
X54500Y29167D01*
X54467Y29400D01*
X54333Y29700D01*
X55200Y29600D01*
Y28700D01*
G01X53200Y27333D02*
X55200D01*
G01Y26067D02*
X53967Y27333D01*
G01X53200Y25867D02*
X54533Y26767D01*
G01X58100Y16000D02*
Y28000D01*
X63700D01*
Y16000D01*
X58100D01*
G01X47933Y46200D02*
Y48200D01*
X48767D01*
X49033Y48100D01*
X49200Y47967D01*
X49267Y47700D01*
X49200Y47433D01*
X49000Y47267D01*
X48767Y47167D01*
X47933D01*
G01X48767D02*
X49267Y46200D01*
G01X52433D02*
X52500Y46633D01*
X52600Y47000D01*
X52733Y47333D01*
X52900Y47700D01*
X53167Y48200D01*
X51833D01*
G01X59067Y30800D02*
Y32800D01*
X59733D01*
X60000Y32700D01*
X60200Y32567D01*
X60367Y32367D01*
X60500Y32133D01*
X60533Y31800D01*
X60500Y31467D01*
X60367Y31233D01*
X60200Y31033D01*
X60000Y30900D01*
X59733Y30800D01*
X59067D01*
G01X62467Y32800D02*
X63733D01*
X62467Y30800D01*
X63733D01*
G01X65767Y32467D02*
X65967Y32667D01*
X66200Y32767D01*
X66467Y32800D01*
X66800Y32733D01*
X67033Y32567D01*
X67100Y32367D01*
X67067Y32167D01*
X66933Y32000D01*
X66267Y31667D01*
X65967Y31433D01*
X65767Y31100D01*
X65700Y30800D01*
X67100D01*
G01X61933Y48033D02*
X61733Y48133D01*
X61500Y48200D01*
X61233D01*
X60933Y48100D01*
X60700Y47933D01*
X60533Y47733D01*
X60400Y47400D01*
X60367Y47100D01*
X60433Y46800D01*
X60533Y46600D01*
X60733Y46400D01*
X60967Y46267D01*
X61200Y46200D01*
X61433D01*
X61667Y46267D01*
X61867Y46367D01*
X62033Y46500D01*
G01X64367Y46600D02*
X64567Y46367D01*
X64833Y46233D01*
X65133Y46200D01*
X65400Y46233D01*
X65667Y46400D01*
X65833Y46600D01*
X65867Y46800D01*
X65800Y47033D01*
X65567Y47200D01*
X65333Y47267D01*
X65033D01*
G01X65333D02*
X65533Y47367D01*
X65700Y47533D01*
X65767Y47733D01*
X65700Y47933D01*
X65533Y48100D01*
X65233Y48200D01*
X64933Y48167D01*
X64633Y48033D01*
G01X64733Y87233D02*
X64533Y87333D01*
X64300Y87400D01*
X64033D01*
X63733Y87300D01*
X63500Y87133D01*
X63333Y86933D01*
X63200Y86600D01*
X63167Y86300D01*
X63233Y86000D01*
X63333Y85800D01*
X63533Y85600D01*
X63767Y85467D01*
X64000Y85400D01*
X64233D01*
X64467Y85467D01*
X64667Y85567D01*
X64833Y85700D01*
G01X67267Y87067D02*
X67467Y87267D01*
X67700Y87367D01*
X67967Y87400D01*
X68300Y87333D01*
X68533Y87167D01*
X68600Y86967D01*
X68567Y86767D01*
X68433Y86600D01*
X67767Y86267D01*
X67467Y86033D01*
X67267Y85700D01*
X67200Y85400D01*
X68600D01*
G01X57000Y116200D02*
X56733Y116233D01*
X56500Y116367D01*
X56300Y116567D01*
X56167Y116800D01*
X56100Y117067D01*
Y117333D01*
X56167Y117600D01*
X56300Y117833D01*
X56500Y118033D01*
X56733Y118167D01*
X57000Y118200D01*
X57267Y118167D01*
X57500Y118033D01*
X57700Y117833D01*
X57833Y117600D01*
X57900Y117333D01*
Y117067D01*
X57833Y116800D01*
X57700Y116567D01*
X57500Y116367D01*
X57267Y116233D01*
X57000Y116200D01*
G01X57267Y116733D02*
X57667Y116200D01*
G01X59567Y116500D02*
X59767Y116333D01*
X60000Y116233D01*
X60300Y116200D01*
X60600Y116267D01*
X60833Y116400D01*
X61000Y116633D01*
X61033Y116900D01*
X60967Y117167D01*
X60800Y117333D01*
X60567Y117467D01*
X60333Y117500D01*
X60100Y117467D01*
X59800Y117333D01*
X59900Y118200D01*
X60800D01*
G01X52400Y111300D02*
X64400D01*
Y105700D01*
X52400D01*
Y111300D01*
G01X66800Y107800D02*
X66533Y107833D01*
X66300Y107967D01*
X66100Y108167D01*
X65967Y108400D01*
X65900Y108667D01*
Y108933D01*
X65967Y109200D01*
X66100Y109433D01*
X66300Y109633D01*
X66533Y109767D01*
X66800Y109800D01*
X67067Y109767D01*
X67300Y109633D01*
X67500Y109433D01*
X67633Y109200D01*
X67700Y108933D01*
Y108667D01*
X67633Y108400D01*
X67500Y108167D01*
X67300Y107967D01*
X67067Y107833D01*
X66800Y107800D01*
G01X67067Y108333D02*
X67467Y107800D01*
G01X69467Y108633D02*
X69700Y108867D01*
X69900Y109000D01*
X70167Y109067D01*
X70400Y109000D01*
X70567Y108867D01*
X70700Y108667D01*
X70733Y108433D01*
X70700Y108233D01*
X70567Y108033D01*
X70367Y107867D01*
X70133Y107800D01*
X69867Y107867D01*
X69633Y108067D01*
X69500Y108367D01*
X69467Y108700D01*
X69533Y109133D01*
X69633Y109367D01*
X69800Y109600D01*
X70033Y109767D01*
X70267Y109800D01*
X70500Y109733D01*
X70667Y109567D01*
G01X69200Y107100D02*
X81200D01*
Y101500D01*
X69200D01*
Y107100D01*
G01X75000Y116900D02*
X63000D01*
Y122500D01*
X75000D01*
Y116900D01*
G01X47200Y105000D02*
X46933Y105033D01*
X46700Y105167D01*
X46500Y105367D01*
X46367Y105600D01*
X46300Y105867D01*
Y106133D01*
X46367Y106400D01*
X46500Y106633D01*
X46700Y106833D01*
X46933Y106967D01*
X47200Y107000D01*
X47467Y106967D01*
X47700Y106833D01*
X47900Y106633D01*
X48033Y106400D01*
X48100Y106133D01*
Y105867D01*
X48033Y105600D01*
X47900Y105367D01*
X47700Y105167D01*
X47467Y105033D01*
X47200Y105000D01*
G01X47467Y105533D02*
X47867Y105000D01*
G01X50433D02*
X50500Y105433D01*
X50600Y105800D01*
X50733Y106133D01*
X50900Y106500D01*
X51167Y107000D01*
X49833D01*
G01X65800Y146667D02*
X67800D01*
Y145833D01*
X67700Y145567D01*
X67567Y145400D01*
X67300Y145333D01*
X67033Y145400D01*
X66867Y145600D01*
X66767Y145833D01*
Y146667D01*
G01Y145833D02*
X65800Y145333D01*
G01Y142100D02*
X67800D01*
X67400Y142500D01*
G01X65800D02*
Y141700D01*
G01X67467Y138833D02*
X67667Y138633D01*
X67767Y138400D01*
X67800Y138133D01*
X67733Y137800D01*
X67567Y137567D01*
X67367Y137500D01*
X67167Y137533D01*
X67000Y137667D01*
X66667Y138333D01*
X66433Y138633D01*
X66100Y138833D01*
X65800Y138900D01*
Y137500D01*
G01X49267Y128800D02*
Y130800D01*
X49933D01*
X50200Y130700D01*
X50400Y130567D01*
X50567Y130367D01*
X50700Y130133D01*
X50733Y129800D01*
X50700Y129467D01*
X50567Y129233D01*
X50400Y129033D01*
X50200Y128900D01*
X49933Y128800D01*
X49267D01*
G01X52667Y130800D02*
X53933D01*
X52667Y128800D01*
X53933D01*
G01X56600D02*
Y130800D01*
X56200Y130400D01*
G01Y128800D02*
X57000D01*
G01Y126000D02*
X56733Y126033D01*
X56500Y126167D01*
X56300Y126367D01*
X56167Y126600D01*
X56100Y126867D01*
Y127133D01*
X56167Y127400D01*
X56300Y127633D01*
X56500Y127833D01*
X56733Y127967D01*
X57000Y128000D01*
X57267Y127967D01*
X57500Y127833D01*
X57700Y127633D01*
X57833Y127400D01*
X57900Y127133D01*
Y126867D01*
X57833Y126600D01*
X57700Y126367D01*
X57500Y126167D01*
X57267Y126033D01*
X57000Y126000D01*
G01X57267Y126533D02*
X57667Y126000D01*
G01X59667Y127667D02*
X59867Y127867D01*
X60100Y127967D01*
X60367Y128000D01*
X60700Y127933D01*
X60933Y127767D01*
X61000Y127567D01*
X60967Y127367D01*
X60833Y127200D01*
X60167Y126867D01*
X59867Y126633D01*
X59667Y126300D01*
X59600Y126000D01*
X61000D01*
G01X81200Y26933D02*
X79200D01*
Y27767D01*
X79300Y28033D01*
X79433Y28200D01*
X79700Y28267D01*
X79967Y28200D01*
X80133Y28000D01*
X80233Y27767D01*
Y26933D01*
G01Y27767D02*
X81200Y28267D01*
G01X80900Y30767D02*
X81067Y30967D01*
X81167Y31200D01*
X81200Y31500D01*
X81133Y31800D01*
X81000Y32033D01*
X80767Y32200D01*
X80500Y32233D01*
X80233Y32167D01*
X80067Y32000D01*
X79933Y31767D01*
X79900Y31533D01*
X79933Y31300D01*
X80067Y31000D01*
X79200Y31100D01*
Y32000D01*
G01X92400Y26933D02*
X90400D01*
Y27767D01*
X90500Y28033D01*
X90633Y28200D01*
X90900Y28267D01*
X91167Y28200D01*
X91333Y28000D01*
X91433Y27767D01*
Y26933D01*
G01Y27767D02*
X92400Y28267D01*
G01X91567Y30867D02*
X91333Y31100D01*
X91200Y31300D01*
X91133Y31567D01*
X91200Y31800D01*
X91333Y31967D01*
X91533Y32100D01*
X91767Y32133D01*
X91967Y32100D01*
X92167Y31967D01*
X92333Y31767D01*
X92400Y31533D01*
X92333Y31267D01*
X92133Y31033D01*
X91833Y30900D01*
X91500Y30867D01*
X91067Y30933D01*
X90833Y31033D01*
X90600Y31200D01*
X90433Y31433D01*
X90400Y31667D01*
X90467Y31900D01*
X90633Y32067D01*
G01X96200Y50400D02*
X95933Y50433D01*
X95700Y50567D01*
X95500Y50767D01*
X95367Y51000D01*
X95300Y51267D01*
Y51533D01*
X95367Y51800D01*
X95500Y52033D01*
X95700Y52233D01*
X95933Y52367D01*
X96200Y52400D01*
X96467Y52367D01*
X96700Y52233D01*
X96900Y52033D01*
X97033Y51800D01*
X97100Y51533D01*
Y51267D01*
X97033Y51000D01*
X96900Y50767D01*
X96700Y50567D01*
X96467Y50433D01*
X96200Y50400D01*
G01X96467Y50933D02*
X96867Y50400D01*
G01X99500D02*
Y52400D01*
X99100Y52000D01*
G01Y50400D02*
X99900D01*
G01X102067Y50800D02*
X102267Y50567D01*
X102533Y50433D01*
X102833Y50400D01*
X103100Y50433D01*
X103367Y50600D01*
X103533Y50800D01*
X103567Y51000D01*
X103500Y51233D01*
X103267Y51400D01*
X103033Y51467D01*
X102733D01*
G01X103033D02*
X103233Y51567D01*
X103400Y51733D01*
X103467Y51933D01*
X103400Y52133D01*
X103233Y52300D01*
X102933Y52400D01*
X102633Y52367D01*
X102333Y52233D01*
G01X101600Y38500D02*
X89600D01*
Y44100D01*
X101600D01*
Y38500D01*
G01X91333Y85400D02*
Y87400D01*
X92167D01*
X92433Y87300D01*
X92600Y87167D01*
X92667Y86900D01*
X92600Y86633D01*
X92400Y86467D01*
X92167Y86367D01*
X91333D01*
G01X92167D02*
X92667Y85400D01*
G01X95233Y87400D02*
Y85400D01*
X96567D01*
G01X99800D02*
Y87400D01*
X99400Y87000D01*
G01Y85400D02*
X100200D01*
G01X88200Y76667D02*
X90200D01*
Y75833D01*
X90100Y75567D01*
X89967Y75400D01*
X89700Y75333D01*
X89433Y75400D01*
X89267Y75600D01*
X89167Y75833D01*
Y76667D01*
G01Y75833D02*
X88200Y75333D01*
G01X90200Y72767D02*
X88200D01*
Y71433D01*
G01X89867Y68833D02*
X90067Y68633D01*
X90167Y68400D01*
X90200Y68133D01*
X90133Y67800D01*
X89967Y67567D01*
X89767Y67500D01*
X89567Y67533D01*
X89400Y67667D01*
X89067Y68333D01*
X88833Y68633D01*
X88500Y68833D01*
X88200Y68900D01*
Y67500D01*
G01X85000Y112000D02*
X84733Y112033D01*
X84500Y112167D01*
X84300Y112367D01*
X84167Y112600D01*
X84100Y112867D01*
Y113133D01*
X84167Y113400D01*
X84300Y113633D01*
X84500Y113833D01*
X84733Y113967D01*
X85000Y114000D01*
X85267Y113967D01*
X85500Y113833D01*
X85700Y113633D01*
X85833Y113400D01*
X85900Y113133D01*
Y112867D01*
X85833Y112600D01*
X85700Y112367D01*
X85500Y112167D01*
X85267Y112033D01*
X85000Y112000D01*
G01X85267Y112533D02*
X85667Y112000D01*
G01X87733Y112233D02*
X87967Y112067D01*
X88233Y112000D01*
X88500Y112067D01*
X88733Y112267D01*
X88900Y112567D01*
X88967Y112867D01*
Y113233D01*
X88900Y113533D01*
X88733Y113800D01*
X88533Y113933D01*
X88300Y114000D01*
X88033Y113933D01*
X87833Y113800D01*
X87700Y113600D01*
X87633Y113333D01*
X87700Y113100D01*
X87867Y112867D01*
X88067Y112733D01*
X88300Y112700D01*
X88567Y112767D01*
X88767Y112933D01*
X88967Y113233D01*
G01X98800Y115500D02*
X86800D01*
Y121100D01*
X98800D01*
Y115500D01*
G01X96600Y113800D02*
X96633Y114067D01*
X96767Y114300D01*
X96967Y114500D01*
X97200Y114633D01*
X97467Y114700D01*
X97733D01*
X98000Y114633D01*
X98233Y114500D01*
X98433Y114300D01*
X98567Y114067D01*
X98600Y113800D01*
X98567Y113533D01*
X98433Y113300D01*
X98233Y113100D01*
X98000Y112967D01*
X97733Y112900D01*
X97467D01*
X97200Y112967D01*
X96967Y113100D01*
X96767Y113300D01*
X96633Y113533D01*
X96600Y113800D01*
G01X97133Y113533D02*
X96600Y113133D01*
G01Y110500D02*
X98600D01*
X98200Y110900D01*
G01X96600D02*
Y110100D01*
G01Y107200D02*
X98600D01*
X98200Y107600D01*
G01X96600D02*
Y106800D01*
G01X87400Y104300D02*
X99400D01*
Y98700D01*
X87400D01*
Y104300D01*
G01X77000Y146667D02*
X79000D01*
Y145833D01*
X78900Y145567D01*
X78767Y145400D01*
X78500Y145333D01*
X78233Y145400D01*
X78067Y145600D01*
X77967Y145833D01*
Y146667D01*
G01Y145833D02*
X77000Y145333D01*
G01Y141700D02*
X79000D01*
X77567Y142933D01*
Y141267D01*
G01X88200Y146667D02*
X90200D01*
Y145833D01*
X90100Y145567D01*
X89967Y145400D01*
X89700Y145333D01*
X89433Y145400D01*
X89267Y145600D01*
X89167Y145833D01*
Y146667D01*
G01Y145833D02*
X88200Y145333D01*
G01Y142100D02*
X88233Y141867D01*
X88333Y141600D01*
X88500Y141433D01*
X88733Y141367D01*
X88967Y141433D01*
X89167Y141633D01*
X89267Y141933D01*
Y142267D01*
X89333Y142467D01*
X89500Y142633D01*
X89733Y142700D01*
X89967Y142600D01*
X90133Y142367D01*
X90200Y142100D01*
X90133Y141833D01*
X89967Y141600D01*
X89733Y141500D01*
X89500Y141567D01*
X89333Y141733D01*
X89267Y141933D01*
Y142267D01*
X89167Y142567D01*
X88967Y142767D01*
X88733Y142833D01*
X88500Y142767D01*
X88333Y142600D01*
X88233Y142333D01*
X88200Y142100D01*
G01X103600Y26933D02*
X101600D01*
Y27767D01*
X101700Y28033D01*
X101833Y28200D01*
X102100Y28267D01*
X102367Y28200D01*
X102533Y28000D01*
X102633Y27767D01*
Y26933D01*
G01Y27767D02*
X103600Y28267D01*
G01X103367Y30933D02*
X103533Y31167D01*
X103600Y31433D01*
X103533Y31700D01*
X103333Y31933D01*
X103033Y32100D01*
X102733Y32167D01*
X102367D01*
X102067Y32100D01*
X101800Y31933D01*
X101667Y31733D01*
X101600Y31500D01*
X101667Y31233D01*
X101800Y31033D01*
X102000Y30900D01*
X102267Y30833D01*
X102500Y30900D01*
X102733Y31067D01*
X102867Y31267D01*
X102900Y31500D01*
X102833Y31767D01*
X102667Y31967D01*
X102367Y32167D01*
G01X103933Y5600D02*
Y7600D01*
X104767D01*
X105033Y7500D01*
X105200Y7367D01*
X105267Y7100D01*
X105200Y6833D01*
X105000Y6667D01*
X104767Y6567D01*
X103933D01*
G01X104767D02*
X105267Y5600D01*
G01X108500D02*
Y7600D01*
X108100Y7200D01*
G01Y5600D02*
X108900D01*
G01X111667Y6000D02*
X111867Y5767D01*
X112133Y5633D01*
X112433Y5600D01*
X112700Y5633D01*
X112967Y5800D01*
X113133Y6000D01*
X113167Y6200D01*
X113100Y6433D01*
X112867Y6600D01*
X112633Y6667D01*
X112333D01*
G01X112633D02*
X112833Y6767D01*
X113000Y6933D01*
X113067Y7133D01*
X113000Y7333D01*
X112833Y7500D01*
X112533Y7600D01*
X112233Y7567D01*
X111933Y7433D01*
G01X116533Y5600D02*
Y7600D01*
X117367D01*
X117633Y7500D01*
X117800Y7367D01*
X117867Y7100D01*
X117800Y6833D01*
X117600Y6667D01*
X117367Y6567D01*
X116533D01*
G01X117367D02*
X117867Y5600D01*
G01X121100D02*
Y7600D01*
X120700Y7200D01*
G01Y5600D02*
X121500D01*
G01X125400D02*
Y7600D01*
X124167Y6167D01*
X125833D01*
G01X127733Y5600D02*
Y7600D01*
X128567D01*
X128833Y7500D01*
X129000Y7367D01*
X129067Y7100D01*
X129000Y6833D01*
X128800Y6667D01*
X128567Y6567D01*
X127733D01*
G01X128567D02*
X129067Y5600D01*
G01X132300D02*
Y7600D01*
X131900Y7200D01*
G01Y5600D02*
X132700D01*
G01X135467Y5900D02*
X135667Y5733D01*
X135900Y5633D01*
X136200Y5600D01*
X136500Y5667D01*
X136733Y5800D01*
X136900Y6033D01*
X136933Y6300D01*
X136867Y6567D01*
X136700Y6733D01*
X136467Y6867D01*
X136233Y6900D01*
X136000Y6867D01*
X135700Y6733D01*
X135800Y7600D01*
X136700D01*
G01X106000Y47600D02*
X105733Y47633D01*
X105500Y47767D01*
X105300Y47967D01*
X105167Y48200D01*
X105100Y48467D01*
Y48733D01*
X105167Y49000D01*
X105300Y49233D01*
X105500Y49433D01*
X105733Y49567D01*
X106000Y49600D01*
X106267Y49567D01*
X106500Y49433D01*
X106700Y49233D01*
X106833Y49000D01*
X106900Y48733D01*
Y48467D01*
X106833Y48200D01*
X106700Y47967D01*
X106500Y47767D01*
X106267Y47633D01*
X106000Y47600D01*
G01X106267Y48133D02*
X106667Y47600D01*
G01X109300D02*
Y49600D01*
X108900Y49200D01*
G01Y47600D02*
X109700D01*
G01X113000D02*
Y49600D01*
X111767Y48167D01*
X113433D01*
G01X109800Y44100D02*
X121800D01*
Y38500D01*
X109800D01*
Y44100D01*
G01X124200Y32200D02*
X123933Y32233D01*
X123700Y32367D01*
X123500Y32567D01*
X123367Y32800D01*
X123300Y33067D01*
Y33333D01*
X123367Y33600D01*
X123500Y33833D01*
X123700Y34033D01*
X123933Y34167D01*
X124200Y34200D01*
X124467Y34167D01*
X124700Y34033D01*
X124900Y33833D01*
X125033Y33600D01*
X125100Y33333D01*
Y33067D01*
X125033Y32800D01*
X124900Y32567D01*
X124700Y32367D01*
X124467Y32233D01*
X124200Y32200D01*
G01X124467Y32733D02*
X124867Y32200D01*
G01X127500D02*
Y34200D01*
X127100Y33800D01*
G01Y32200D02*
X127900D01*
G01X130167Y33033D02*
X130400Y33267D01*
X130600Y33400D01*
X130867Y33467D01*
X131100Y33400D01*
X131267Y33267D01*
X131400Y33067D01*
X131433Y32833D01*
X131400Y32633D01*
X131267Y32433D01*
X131067Y32267D01*
X130833Y32200D01*
X130567Y32267D01*
X130333Y32467D01*
X130200Y32767D01*
X130167Y33100D01*
X130233Y33533D01*
X130333Y33767D01*
X130500Y34000D01*
X130733Y34167D01*
X130967Y34200D01*
X131200Y34133D01*
X131367Y33967D01*
G01X107800Y64733D02*
X105800D01*
Y65567D01*
X105900Y65833D01*
X106033Y66000D01*
X106300Y66067D01*
X106567Y66000D01*
X106733Y65800D01*
X106833Y65567D01*
Y64733D01*
G01Y65567D02*
X107800Y66067D01*
G01Y69300D02*
X105800D01*
X106200Y68900D01*
G01X107800D02*
Y69700D01*
G01X106967Y72567D02*
X106733Y72800D01*
X106600Y73000D01*
X106533Y73267D01*
X106600Y73500D01*
X106733Y73667D01*
X106933Y73800D01*
X107167Y73833D01*
X107367Y73800D01*
X107567Y73667D01*
X107733Y73467D01*
X107800Y73233D01*
X107733Y72967D01*
X107533Y72733D01*
X107233Y72600D01*
X106900Y72567D01*
X106467Y72633D01*
X106233Y72733D01*
X106000Y72900D01*
X105833Y73133D01*
X105800Y73367D01*
X105867Y73600D01*
X106033Y73767D01*
G01X117933Y71400D02*
Y73400D01*
X118767D01*
X119033Y73300D01*
X119200Y73167D01*
X119267Y72900D01*
X119200Y72633D01*
X119000Y72467D01*
X118767Y72367D01*
X117933D01*
G01X118767D02*
X119267Y71400D01*
G01X122500D02*
Y73400D01*
X122100Y73000D01*
G01Y71400D02*
X122900D01*
G01X126333D02*
X126400Y71833D01*
X126500Y72200D01*
X126633Y72533D01*
X126800Y72900D01*
X127067Y73400D01*
X125733D01*
G01X107800Y83600D02*
X107767Y83333D01*
X107633Y83100D01*
X107433Y82900D01*
X107200Y82767D01*
X106933Y82700D01*
X106667D01*
X106400Y82767D01*
X106167Y82900D01*
X105967Y83100D01*
X105833Y83333D01*
X105800Y83600D01*
X105833Y83867D01*
X105967Y84100D01*
X106167Y84300D01*
X106400Y84433D01*
X106667Y84500D01*
X106933D01*
X107200Y84433D01*
X107433Y84300D01*
X107633Y84100D01*
X107767Y83867D01*
X107800Y83600D01*
G01X107267Y83867D02*
X107800Y84267D01*
G01Y86900D02*
X105800D01*
X106200Y86500D01*
G01X107800D02*
Y87300D01*
G01X106133Y89567D02*
X105933Y89767D01*
X105833Y90000D01*
X105800Y90267D01*
X105867Y90600D01*
X106033Y90833D01*
X106233Y90900D01*
X106433Y90867D01*
X106600Y90733D01*
X106933Y90067D01*
X107167Y89767D01*
X107500Y89567D01*
X107800Y89500D01*
Y90900D01*
G01X133800Y116900D02*
X121800D01*
Y122500D01*
X133800D01*
Y116900D01*
G01X123500Y97800D02*
X123467Y97533D01*
X123333Y97300D01*
X123133Y97100D01*
X122900Y96967D01*
X122633Y96900D01*
X122367D01*
X122100Y96967D01*
X121867Y97100D01*
X121667Y97300D01*
X121533Y97533D01*
X121500Y97800D01*
X121533Y98067D01*
X121667Y98300D01*
X121867Y98500D01*
X122100Y98633D01*
X122367Y98700D01*
X122633D01*
X122900Y98633D01*
X123133Y98500D01*
X123333Y98300D01*
X123467Y98067D01*
X123500Y97800D01*
G01X122967Y98067D02*
X123500Y98467D01*
G01Y101100D02*
X121500D01*
X121900Y100700D01*
G01X123500D02*
Y101500D01*
G01X123200Y103667D02*
X123367Y103867D01*
X123467Y104100D01*
X123500Y104400D01*
X123433Y104700D01*
X123300Y104933D01*
X123067Y105100D01*
X122800Y105133D01*
X122533Y105067D01*
X122367Y104900D01*
X122233Y104667D01*
X122200Y104433D01*
X122233Y104200D01*
X122367Y103900D01*
X121500Y104000D01*
Y104900D01*
G01X136600Y95900D02*
X124600D01*
Y101500D01*
X136600D01*
Y95900D01*
G01X117000Y115500D02*
X105000D01*
Y121100D01*
X117000D01*
Y115500D01*
G01Y93100D02*
X105000D01*
Y98700D01*
X117000D01*
Y93100D01*
G01X126000Y146667D02*
X128000D01*
Y145833D01*
X127900Y145567D01*
X127767Y145400D01*
X127500Y145333D01*
X127233Y145400D01*
X127067Y145600D01*
X126967Y145833D01*
Y146667D01*
G01Y145833D02*
X126000Y145333D01*
G01X126400Y142833D02*
X126167Y142633D01*
X126033Y142367D01*
X126000Y142067D01*
X126033Y141800D01*
X126200Y141533D01*
X126400Y141367D01*
X126600Y141333D01*
X126833Y141400D01*
X127000Y141633D01*
X127067Y141867D01*
Y142167D01*
G01Y141867D02*
X127167Y141667D01*
X127333Y141500D01*
X127533Y141433D01*
X127733Y141500D01*
X127900Y141667D01*
X128000Y141967D01*
X127967Y142267D01*
X127833Y142567D01*
G01X100800Y146667D02*
X102800D01*
Y145833D01*
X102700Y145567D01*
X102567Y145400D01*
X102300Y145333D01*
X102033Y145400D01*
X101867Y145600D01*
X101767Y145833D01*
Y146667D01*
G01Y145833D02*
X100800Y145333D01*
G01Y142100D02*
X102800D01*
X102400Y142500D01*
G01X100800D02*
Y141700D01*
G01X102800Y138200D02*
X102733Y138467D01*
X102567Y138667D01*
X102367Y138800D01*
X102100Y138900D01*
X101800Y138933D01*
X101500Y138900D01*
X101233Y138800D01*
X101033Y138667D01*
X100867Y138467D01*
X100800Y138200D01*
X100867Y137933D01*
X101033Y137733D01*
X101233Y137600D01*
X101500Y137500D01*
X101800Y137467D01*
X102100Y137500D01*
X102367Y137600D01*
X102567Y137733D01*
X102733Y137933D01*
X102800Y138200D01*
G01X113400Y146667D02*
X115400D01*
Y145833D01*
X115300Y145567D01*
X115167Y145400D01*
X114900Y145333D01*
X114633Y145400D01*
X114467Y145600D01*
X114367Y145833D01*
Y146667D01*
G01Y145833D02*
X113400Y145333D01*
G01Y142100D02*
X115400D01*
X115000Y142500D01*
G01X113400D02*
Y141700D01*
G01Y138200D02*
X115400D01*
X115000Y138600D01*
G01X113400D02*
Y137800D01*
G01X127000Y128800D02*
X126733Y128833D01*
X126500Y128967D01*
X126300Y129167D01*
X126167Y129400D01*
X126100Y129667D01*
Y129933D01*
X126167Y130200D01*
X126300Y130433D01*
X126500Y130633D01*
X126733Y130767D01*
X127000Y130800D01*
X127267Y130767D01*
X127500Y130633D01*
X127700Y130433D01*
X127833Y130200D01*
X127900Y129933D01*
Y129667D01*
X127833Y129400D01*
X127700Y129167D01*
X127500Y128967D01*
X127267Y128833D01*
X127000Y128800D01*
G01X127267Y129333D02*
X127667Y128800D01*
G01X130300D02*
Y130800D01*
X129900Y130400D01*
G01Y128800D02*
X130700D01*
G01X111600Y127400D02*
X111333Y127433D01*
X111100Y127567D01*
X110900Y127767D01*
X110767Y128000D01*
X110700Y128267D01*
Y128533D01*
X110767Y128800D01*
X110900Y129033D01*
X111100Y129233D01*
X111333Y129367D01*
X111600Y129400D01*
X111867Y129367D01*
X112100Y129233D01*
X112300Y129033D01*
X112433Y128800D01*
X112500Y128533D01*
Y128267D01*
X112433Y128000D01*
X112300Y127767D01*
X112100Y127567D01*
X111867Y127433D01*
X111600Y127400D01*
G01X111867Y127933D02*
X112267Y127400D01*
G01X114900D02*
Y129400D01*
X114500Y129000D01*
G01Y127400D02*
X115300D01*
G01X118200Y129400D02*
X117933Y129333D01*
X117733Y129167D01*
X117600Y128967D01*
X117500Y128700D01*
X117467Y128400D01*
X117500Y128100D01*
X117600Y127833D01*
X117733Y127633D01*
X117933Y127467D01*
X118200Y127400D01*
X118467Y127467D01*
X118667Y127633D01*
X118800Y127833D01*
X118900Y128100D01*
X118933Y128400D01*
X118900Y128700D01*
X118800Y128967D01*
X118667Y129167D01*
X118467Y129333D01*
X118200Y129400D01*
G01X139333Y6567D02*
Y7433D01*
G01X138000Y8967D02*
X140000Y9800D01*
X138000Y10633D01*
G01X138167Y13333D02*
X138067Y13133D01*
X138000Y12900D01*
Y12633D01*
X138100Y12333D01*
X138267Y12100D01*
X138467Y11933D01*
X138800Y11800D01*
X139100Y11767D01*
X139400Y11833D01*
X139600Y11933D01*
X139800Y12133D01*
X139933Y12367D01*
X140000Y12600D01*
Y12833D01*
X139933Y13067D01*
X139833Y13267D01*
X139700Y13433D01*
G01X138167Y16133D02*
X138067Y15933D01*
X138000Y15700D01*
Y15433D01*
X138100Y15133D01*
X138267Y14900D01*
X138467Y14733D01*
X138800Y14600D01*
X139100Y14567D01*
X139400Y14633D01*
X139600Y14733D01*
X139800Y14933D01*
X139933Y15167D01*
X140000Y15400D01*
Y15633D01*
X139933Y15867D01*
X139833Y16067D01*
X139700Y16233D01*
G01X142000Y6200D02*
Y16200D01*
X152000D01*
Y6200D01*
X142000D01*
G01X140000Y21000D02*
X139967Y20733D01*
X139833Y20500D01*
X139633Y20300D01*
X139400Y20167D01*
X139133Y20100D01*
X138867D01*
X138600Y20167D01*
X138367Y20300D01*
X138167Y20500D01*
X138033Y20733D01*
X138000Y21000D01*
X138033Y21267D01*
X138167Y21500D01*
X138367Y21700D01*
X138600Y21833D01*
X138867Y21900D01*
X139133D01*
X139400Y21833D01*
X139633Y21700D01*
X139833Y21500D01*
X139967Y21267D01*
X140000Y21000D01*
G01X138000Y23067D02*
X139433D01*
X139733Y23200D01*
X139933Y23467D01*
X140000Y23800D01*
X139933Y24133D01*
X139733Y24400D01*
X139433Y24533D01*
X138000D01*
G01Y26600D02*
X140000D01*
G01X138000Y25833D02*
Y27367D01*
G01X142000Y18800D02*
Y28800D01*
X152000D01*
Y18800D01*
X142000D01*
G01X149200Y42000D02*
X151200D01*
G01X149200Y41233D02*
Y42767D01*
G01X151200Y44800D02*
X149200D01*
X149600Y44400D01*
G01X151200D02*
Y45200D01*
G01X142000Y45400D02*
Y55400D01*
X152000D01*
Y45400D01*
X142000D01*
G01X130800Y44100D02*
X142800D01*
Y38500D01*
X130800D01*
Y44100D01*
G01X143133Y58000D02*
Y56000D01*
X144467D01*
G01X148367D02*
X147033D01*
Y58000D01*
X148367D01*
G01X147833Y57033D02*
X147033D01*
G01X150867Y56000D02*
Y58000D01*
X151533D01*
X151800Y57900D01*
X152000Y57767D01*
X152167Y57567D01*
X152300Y57333D01*
X152333Y57000D01*
X152300Y56667D01*
X152167Y56433D01*
X152000Y56233D01*
X151800Y56100D01*
X151533Y56000D01*
X150867D01*
G01X151600Y82800D02*
Y83467D01*
X152200D01*
X152400Y83267D01*
X152533Y83033D01*
X152600Y82700D01*
X152533Y82367D01*
X152400Y82133D01*
X152200Y81933D01*
X151967Y81800D01*
X151700Y81733D01*
X151467D01*
X151267Y81800D01*
X151033Y81933D01*
X150833Y82133D01*
X150700Y82333D01*
X150600Y82600D01*
Y82833D01*
X150667Y83100D01*
X150800Y83300D01*
G01X152600Y84633D02*
X150600D01*
X152600Y86167D01*
X150600D01*
G01X152600Y87467D02*
X150600D01*
Y88133D01*
X150700Y88400D01*
X150833Y88600D01*
X151033Y88767D01*
X151267Y88900D01*
X151600Y88933D01*
X151933Y88900D01*
X152167Y88767D01*
X152367Y88600D01*
X152500Y88400D01*
X152600Y88133D01*
Y87467D01*
G01X142000Y88800D02*
Y98800D01*
X152000D01*
Y88800D01*
X142000D01*
G01Y119600D02*
Y129600D01*
X152000D01*
Y119600D01*
X142000D01*
G01X149200Y113400D02*
X151200D01*
G01X149200Y112633D02*
Y114167D01*
G01X149533Y115567D02*
X149333Y115767D01*
X149233Y116000D01*
X149200Y116267D01*
X149267Y116600D01*
X149433Y116833D01*
X149633Y116900D01*
X149833Y116867D01*
X150000Y116733D01*
X150333Y116067D01*
X150567Y115767D01*
X150900Y115567D01*
X151200Y115500D01*
Y116900D01*
G01X142000Y102800D02*
Y112800D01*
X152000D01*
Y102800D01*
X142000D01*
G01X149133Y132633D02*
Y133433D01*
G01X148700Y133000D02*
X149567D01*
G01X147800Y134967D02*
X149800Y135800D01*
X147800Y136633D01*
G01X147967Y139333D02*
X147867Y139133D01*
X147800Y138900D01*
Y138633D01*
X147900Y138333D01*
X148067Y138100D01*
X148267Y137933D01*
X148600Y137800D01*
X148900Y137767D01*
X149200Y137833D01*
X149400Y137933D01*
X149600Y138133D01*
X149733Y138367D01*
X149800Y138600D01*
Y138833D01*
X149733Y139067D01*
X149633Y139267D01*
X149500Y139433D01*
G01X147967Y142133D02*
X147867Y141933D01*
X147800Y141700D01*
Y141433D01*
X147900Y141133D01*
X148067Y140900D01*
X148267Y140733D01*
X148600Y140600D01*
X148900Y140567D01*
X149200Y140633D01*
X149400Y140733D01*
X149600Y140933D01*
X149733Y141167D01*
X149800Y141400D01*
Y141633D01*
X149733Y141867D01*
X149633Y142067D01*
X149500Y142233D01*
G54D11*
G01X41550Y49400D02*
X34050D01*
G01D02*
Y65400D01*
G01D02*
X41550D01*
G01X19150Y114400D02*
Y98400D01*
G01D02*
X11650D01*
G01D02*
Y114400D01*
G01D02*
X19150D01*
G01X30350Y107400D02*
Y91400D01*
G01D02*
X22850D01*
G01D02*
Y107400D01*
G01D02*
X30350D01*
G01X54150Y65400D02*
Y49400D01*
G01D02*
X46650D01*
G01D02*
Y65400D01*
G01X41550D02*
Y49400D01*
G01X59250D02*
Y65400D01*
G01X66750D02*
Y49400D01*
G01D02*
X59250D01*
G01X46650Y65400D02*
X54150D01*
G01X59200Y83550D02*
X75200D01*
G01Y76050D02*
X59200D01*
G01D02*
Y83550D01*
G01X59250Y65400D02*
X66750D01*
G01X69050Y130600D02*
Y146600D01*
G01D02*
X76550D01*
G01Y130600D02*
X69050D01*
G01X57850D02*
Y146600D01*
G01D02*
X65350D01*
G01D02*
Y130600D01*
G01D02*
X57850D01*
G01X71850Y8800D02*
Y24800D01*
G01D02*
X79350D01*
G01D02*
Y8800D01*
G01D02*
X71850D01*
G01X83050D02*
Y24800D01*
G01D02*
X90550D01*
G01D02*
Y8800D01*
G01D02*
X83050D01*
G01X94250D02*
Y24800D01*
G01D02*
X101750D01*
G01Y8800D02*
X94250D01*
G01X98950Y83600D02*
Y67600D01*
G01D02*
X91450D01*
G01D02*
Y83600D01*
G01D02*
X98950D01*
G01X78850Y67600D02*
Y83600D01*
G01D02*
X86350D01*
G01D02*
Y67600D01*
G01D02*
X78850D01*
G01X75200Y83550D02*
Y76050D01*
G01X76550Y146600D02*
Y130600D01*
G01X80250D02*
Y146600D01*
G01D02*
X87750D01*
G01D02*
Y130600D01*
G01D02*
X80250D01*
G01X91450D02*
Y146600D01*
G01D02*
X98950D01*
G01D02*
Y130600D01*
G01D02*
X91450D01*
G01X101750Y24800D02*
Y8800D01*
G01X105450D02*
Y24800D01*
G01D02*
X112950D01*
G01D02*
Y8800D01*
G01D02*
X105450D01*
G01X116650D02*
Y24800D01*
G01D02*
X124150D01*
G01D02*
Y8800D01*
G01D02*
X116650D01*
G01X127850D02*
Y24800D01*
G01D02*
X135350D01*
G01Y8800D02*
X127850D01*
G01X109650Y63400D02*
Y79400D01*
G01D02*
X117150D01*
G01D02*
Y63400D01*
G01D02*
X109650D01*
G01X135350D02*
X127850D01*
G01D02*
Y79400D01*
G01D02*
X135350D01*
G01X116650Y130600D02*
Y146600D01*
G01D02*
X124150D01*
G01D02*
Y130600D01*
G01D02*
X116650D01*
G01X104050D02*
Y146600D01*
G01D02*
X111550D01*
G01D02*
Y130600D01*
G01D02*
X104050D01*
G01X135350Y24800D02*
Y8800D01*
G01X152150Y74800D02*
Y59000D01*
G01D02*
X147850D01*
G01D02*
X147000Y58150D01*
G01D02*
X146150Y59000D01*
G01D02*
X141850D01*
G01D02*
Y74800D01*
G01X135350Y79400D02*
Y63400D01*
G01X141850Y74800D02*
X152150D01*
G54D12*
G01X14416Y65835D02*
X10085D01*
Y85520D01*
X11266D01*
G01X36400Y25278D02*
X45258D01*
G01X35022D02*
G03X40928Y19372I5906J0D01*
G03X46833Y25475I-1J5909D01*
G03X40928Y31183I-5899J-194D01*
G03X35022Y25278I-1J-5905D01*
G01X35416Y15435D02*
X31085D01*
Y35120D01*
X32266D01*
G01X39943D02*
X41912D01*
G01X15400Y75678D02*
X24258D01*
G01X19928Y71150D02*
Y80206D01*
G01X14022Y75678D02*
G03X19928Y69772I5906J0D01*
G03X25833Y75875I-1J5909D01*
G03X19928Y81583I-5899J-194D01*
G03X14022Y75678I-1J-5905D01*
G01X18943Y85520D02*
X20912D01*
G01X25439Y65835D02*
X29770D01*
Y85520D01*
X28589D01*
G01X26600Y131522D02*
X17742D01*
G01X22072Y136050D02*
Y126994D01*
G01X27978Y131522D02*
G03X22072Y137428I-5906J0D01*
G03X16167Y131325I1J-5909D01*
G03X22072Y125617I5899J194D01*
G03X27978Y131522I1J5905D01*
G01X23057Y121680D02*
X21088D01*
G01X16561Y141365D02*
X12230D01*
Y121680D01*
X13411D01*
G01X27584Y141365D02*
X31915D01*
Y121680D01*
X30734D01*
G01X40928Y20750D02*
Y29806D01*
G01X46439Y15435D02*
X50770D01*
Y35120D01*
X49589D01*
M02*
